<svg xmlns="http://www.w3.org/2000/svg" version="1.0" preserveAspectRatio="xMidYMid meet" viewBox="40 32.08 121.03 121.92">
<metadata>
Created by potrace 1.10, written by Peter Selinger 2001-2011
</metadata>
<g transform="translate(0.000000,199.000000) scale(0.100000,-0.100000)" fill="#ffffff" stroke="none">
<path d="M473 1663 c-12 -2 -34 -18 -48 -34 l-25 -31 0 -537 c0 -520 1 -539 20 -563 34 -43 62 -49 250 -46 l175 3 3 548 2 547 248 0 c282 0 342 -9 434 -66 32 -19 62 -32 68 -29 16 10 12 122 -6 156 -30 59 -33 59 -591 58 -279 -1 -518 -4 -530 -6z m1071 -54 c20 -16 26 -29 26 -59 l0 -39 -32 18 c-91 52 -125 56 -433 56 l-290 0 -3 -547 -2 -548 -160 0 c-154 0 -160 1 -187 24 l-28 24 2 513 c1 282 4 522 7 534 3 12 16 27 28 33 16 7 186 11 534 11 503 1 512 1 538 -20z"/>
<path d="M1032 1463 l-92 -4 2 -277 3 -277 190 -3 c199 -3 250 3 323 40 191 96 187 403 -6 486 -26 12 -77 26 -113 31 -61 10 -102 11 -307 4z m367 -54 c62 -17 135 -90 151 -149 27 -101 -8 -215 -81 -266 -65 -45 -116 -54 -311 -54 l-178 0 0 246 0 247 188 -6 c103 -3 207 -11 231 -18z"/>
<path d="M1573 907 c-144 -84 -168 -89 -418 -96 l-210 -6 -3 -164 c-2 -112 1 -168 9 -177 9 -11 65 -14 288 -14 243 0 280 2 311 18 19 9 40 28 47 42 14 28 19 395 5 404 -4 3 -17 -1 -29 -7z m-3 -212 c0 -152 -1 -156 -25 -180 l-24 -25 -271 0 -270 0 0 140 0 140 153 0 c211 0 333 21 402 67 11 7 23 13 27 13 5 0 8 -70 8 -155z"/>
</g>
</svg>